<?xml version="1.0" standalone="no"?>
<!DOCTYPE svg PUBLIC "-//W3C//DTD SVG 20010904//EN"
 "http://www.w3.org/TR/2001/REC-SVG-20010904/DTD/svg10.dtd">
<svg version="1.0" xmlns="http://www.w3.org/2000/svg"
 width="250.000000pt" height="250.000000pt" viewBox="0 0 250.000000 250.000000"
 preserveAspectRatio="xMidYMid meet">
<metadata>
Created by potrace 1.14, written by Peter Selinger 2001-2017
</metadata>
<g transform="translate(0.000000,250.000000) scale(0.100000,-0.100000)"
fill="#000000" stroke="none">
<path d="M60 1715 c0 -18 -5 -25 -20 -25 -20 0 -20 -7 -20 -475 l0 -475 126 0
c124 0 126 0 121 21 -4 15 0 23 14 26 18 5 19 16 19 169 l0 164 181 0 181 0
-4 25 c-4 19 -1 25 13 25 17 0 19 9 19 90 l0 90 -195 0 -195 0 0 75 0 75 350
0 350 0 0 -380 0 -380 120 0 c91 0 120 3 119 13 -3 26 2 37 16 37 13 0 15 46
15 355 l0 355 126 0 c69 0 123 3 121 8 -3 4 -1 16 4 27 4 11 8 -163 8 -387 l1
-408 126 0 c124 0 126 0 121 21 -4 15 0 23 14 26 18 5 19 15 19 142 l0 137 28
27 c15 15 31 27 34 27 3 0 64 -85 134 -190 l128 -190 143 0 c79 0 142 3 142 8
-4 24 3 42 16 42 36 0 5 55 -165 295 -99 139 -180 258 -180 263 0 5 70 79 155
165 85 85 155 159 155 164 0 6 7 16 15 23 8 7 15 19 15 26 0 11 -29 14 -147
14 l-148 -1 -160 -171 -160 -171 -3 171 -2 172 -120 0 -120 0 0 -25 c0 -14 -4
-25 -10 -25 -5 0 -10 11 -10 25 l0 25 -394 0 -395 0 -4 -27 -4 -28 -2 28 -1
27 -345 0 -345 0 0 -25z"/>
</g>
</svg>
